<?xml version="1.0" standalone="no"?>
<!DOCTYPE svg PUBLIC "-//W3C//DTD SVG 20010904//EN"
 "http://www.w3.org/TR/2001/REC-SVG-20010904/DTD/svg10.dtd">
<svg version="1.0" xmlns="http://www.w3.org/2000/svg"
 width="411.000000pt" height="402.000000pt" viewBox="0 0 411.000000 402.000000"
 preserveAspectRatio="xMidYMid meet">
<metadata>
Created by potrace 1.10, written by Peter Selinger 2001-2011
</metadata>
<g transform="translate(0.000000,402.000000) scale(0.100000,-0.100000)"
fill="#008a8c" stroke="none">
<path d="M1838 3845 c-4 -4 -49 -13 -100 -20 -110 -16 -257 -51 -313 -74 -11
-5 -42 -17 -70 -26 -79 -27 -293 -135 -323 -162 -7 -7 -18 -13 -23 -13 -14 0
-156 -106 -238 -179 -87 -77 -143 -135 -202 -211 -24 -30 -46 -57 -49 -60 -12
-11 -130 -192 -130 -200 0 -5 -6 -15 -13 -22 -13 -15 -34 -56 -67 -133 -12
-27 -27 -63 -35 -80 -21 -48 -45 -124 -45 -144 0 -10 -3 -21 -7 -25 -10 -10
-30 -96 -51 -221 -23 -135 -23 -424 0 -555 25 -140 58 -270 84 -327 8 -17 14
-36 14 -42 0 -6 4 -19 9 -29 5 -9 33 -66 62 -127 30 -60 66 -128 80 -150 15
-22 43 -65 63 -95 19 -30 47 -68 61 -85 102 -119 162 -181 243 -250 52 -44 99
-85 105 -90 11 -9 77 -54 118 -80 9 -5 38 -22 65 -38 27 -15 56 -31 64 -36 8
-6 51 -26 95 -46 44 -20 87 -40 95 -44 9 -5 31 -12 50 -16 19 -4 40 -11 45
-15 19 -14 190 -56 315 -78 171 -29 635 -17 715 18 11 5 36 12 55 15 40 8 125
33 155 45 11 5 31 12 45 15 61 16 247 104 325 154 22 14 45 28 50 31 15 8 98
64 112 75 6 5 53 46 105 90 81 69 141 131 243 250 14 17 42 55 61 85 20 30 48
73 63 95 14 22 50 90 80 150 29 61 57 118 62 127 5 10 9 23 9 29 0 6 6 25 14
42 27 58 60 188 84 327 22 130 23 420 0 555 -22 133 -64 303 -79 320 -5 5 -9
15 -9 23 0 7 -9 34 -21 60 -11 26 -27 63 -35 82 -28 64 -49 105 -61 118 -7 7
-13 17 -13 22 0 8 -118 189 -130 200 -3 3 -25 30 -49 60 -59 76 -115 134 -202
211 -82 73 -224 179 -238 179 -5 0 -16 6 -23 13 -19 17 -46 32 -172 94 -61 30
-119 59 -128 64 -10 5 -25 9 -34 9 -9 0 -30 6 -47 14 -58 26 -189 60 -322 83
-92 16 -505 30 -517 18z m247 -476 c33 -18 101 -70 161 -124 30 -26 74 -64
119 -100 28 -22 55 -44 61 -50 6 -5 32 -28 59 -50 27 -22 74 -62 104 -88 l56
-49 5 120 c7 178 13 182 211 182 81 0 155 -3 164 -6 9 -4 26 -27 36 -51 17
-40 19 -72 19 -326 0 -155 4 -287 8 -292 4 -6 21 -21 37 -34 17 -12 48 -39 70
-60 22 -20 86 -76 143 -125 109 -94 142 -143 142 -210 0 -51 -13 -78 -61 -124
-48 -48 -102 -67 -164 -57 -43 6 -78 27 -143 87 -21 18 -104 91 -187 163 -82
71 -152 132 -155 135 -3 3 -34 30 -70 60 -36 30 -67 57 -70 60 -3 3 -72 64
-155 135 -82 71 -152 132 -155 135 -3 3 -34 30 -70 60 -36 30 -67 57 -70 60
-3 3 -37 33 -76 68 -69 59 -88 71 -96 55 -3 -7 -93 -87 -194 -173 -16 -13 -65
-55 -109 -93 -44 -38 -91 -78 -105 -90 -26 -22 -144 -124 -239 -205 -30 -26
-71 -61 -90 -78 -20 -17 -119 -103 -221 -190 -102 -87 -187 -161 -190 -165 -3
-3 -19 -14 -37 -23 -140 -71 -306 116 -222 251 12 18 87 91 167 161 81 69 149
129 152 132 3 3 34 30 69 60 36 30 72 62 81 70 9 8 45 40 80 70 35 30 80 69
100 86 19 17 50 44 69 60 19 16 39 34 45 39 23 20 162 143 195 171 19 16 55
48 81 72 26 23 61 52 76 65 16 12 36 29 45 37 60 57 167 148 189 161 54 33 84
35 135 8z m62 -705 c43 -36 92 -78 108 -92 17 -15 73 -63 125 -106 52 -44 100
-85 106 -90 6 -6 32 -29 59 -51 73 -61 209 -177 215 -184 3 -4 19 -17 35 -30
126 -96 214 -184 243 -243 22 -45 22 -48 22 -523 0 -458 -1 -479 -20 -510 -28
-45 -55 -54 -171 -56 -128 -3 -129 -2 -127 131 1 74 -3 102 -16 122 -9 13 -18
45 -20 69 -6 66 -28 134 -53 163 -16 18 -24 44 -29 91 -4 35 -13 70 -20 76 -8
6 -14 17 -14 24 0 6 -9 20 -21 31 -15 13 -19 26 -15 46 6 32 64 116 118 173
33 35 38 46 38 88 0 51 -14 72 -98 152 -38 35 -116 87 -147 98 -73 26 -122 37
-169 37 -30 0 -74 7 -95 16 -55 22 -191 7 -251 -27 -8 -4 -34 -18 -56 -30 -23
-12 -73 -54 -113 -95 -68 -70 -71 -75 -71 -120 0 -27 6 -54 14 -63 13 -14 11
-22 -15 -60 l-29 -44 0 -242 c0 -174 -3 -244 -12 -253 -7 -7 -31 -12 -54 -12
-25 0 -47 -6 -54 -15 -7 -8 -23 -15 -36 -15 -12 0 -26 -4 -29 -10 -3 -5 -27
-12 -53 -16 -26 -3 -58 -15 -72 -26 -22 -17 -25 -28 -24 -79 0 -32 8 -74 16
-91 59 -124 65 -118 -132 -118 l-160 0 -30 27 c-19 17 -35 44 -40 68 -12 52
-12 908 0 960 9 41 79 116 185 200 28 22 55 45 60 51 6 6 69 60 140 119 72 60
132 112 135 115 3 3 27 24 55 45 27 22 55 45 61 50 6 6 35 30 64 55 30 25 99
83 154 130 190 161 181 159 293 64z m69 -639 c13 -9 44 -14 94 -15 73 0 84 -3
162 -47 44 -24 116 -81 150 -118 32 -35 35 -58 11 -83 -37 -37 -91 -109 -124
-162 -18 -30 -37 -57 -41 -60 -4 -4 -10 -20 -14 -37 -5 -27 -3 -31 20 -37 38
-10 65 -40 83 -97 13 -38 14 -55 5 -74 -10 -22 -9 -27 11 -40 39 -25 68 -96
66 -159 -1 -37 3 -62 12 -74 8 -9 21 -34 27 -54 11 -31 10 -45 -3 -84 -14 -41
-14 -49 0 -77 8 -16 15 -56 15 -88 0 -53 -2 -59 -36 -89 -47 -40 -105 -66
-174 -75 -30 -4 -62 -11 -71 -16 -17 -9 -75 -20 -219 -44 -122 -20 -207 -39
-216 -47 -4 -5 -21 -8 -39 -8 -35 0 -55 -15 -55 -42 0 -11 -10 -20 -27 -24
-16 -3 -66 -20 -112 -37 -97 -35 -108 -32 -131 34 -8 24 -18 49 -22 54 -3 6
-17 51 -31 100 -14 50 -35 115 -47 145 -12 30 -26 71 -30 90 -13 54 -35 118
-43 126 -4 4 -7 14 -7 23 0 9 -7 29 -15 45 -8 15 -15 34 -15 42 0 15 48 39 98
49 18 4 45 13 60 20 15 7 44 17 65 20 34 7 39 5 44 -14 3 -12 11 -20 17 -18
12 4 105 184 106 205 0 19 65 115 101 150 17 16 46 38 65 48 38 20 40 30 19
58 -8 11 -15 26 -15 34 0 7 -17 38 -37 68 -21 31 -43 64 -49 76 -7 11 -30 39
-51 61 -67 70 -66 79 14 156 65 62 86 76 173 115 46 21 179 22 206 1z"/>
<path d="M2035 1951 c-3 -5 -18 -12 -33 -16 -15 -3 -39 -16 -54 -28 -23 -19
-27 -30 -30 -88 -2 -61 0 -68 30 -106 18 -23 32 -45 32 -51 0 -5 6 -15 14 -21
12 -10 17 -8 25 8 22 40 119 68 137 39 13 -21 23 30 23 113 -1 98 -4 109 -35
109 -17 0 -27 8 -34 25 -7 19 -17 25 -39 25 -16 0 -32 -4 -36 -9z m58 -93 c22
-16 27 -27 27 -58 0 -36 -2 -40 -33 -45 -19 -4 -47 -5 -63 -3 -27 3 -29 6 -32
49 -3 41 1 50 24 68 27 21 30 21 77 -11z"/>
<path d="M2318 1914 c-7 -9 -25 -28 -40 -42 -27 -25 -28 -31 -28 -119 l0 -92
33 6 c36 5 95 -18 110 -43 11 -20 36 -17 44 4 3 9 19 33 35 53 25 33 28 45 28
107 l0 71 -63 36 c-70 39 -100 43 -119 19z m94 -83 c20 -17 25 -90 7 -108 -13
-13 -78 0 -90 19 -17 26 -9 69 16 94 25 25 32 25 67 -5z"/>
<path d="M2143 1543 c-12 -13 -33 -23 -47 -23 -14 0 -27 -4 -30 -8 -7 -11 47
-115 59 -114 6 1 13 18 17 39 4 21 13 54 19 74 15 48 9 59 -18 32z"/>
<path d="M2232 1495 c-13 -29 -16 -65 -5 -65 4 0 33 8 65 17 61 18 78 43 31
43 -16 0 -37 7 -47 15 -27 20 -31 19 -44 -10z"/>
<path d="M2300 1343 c-25 -8 -61 -23 -80 -34 -127 -71 -139 -72 -175 -4 -11
21 -25 40 -30 42 -19 6 -80 -62 -106 -118 -91 -196 -122 -243 -177 -279 -22
-14 -23 -16 -8 -45 9 -17 16 -40 16 -51 0 -12 7 -35 15 -50 8 -16 15 -36 15
-44 0 -9 4 -20 9 -25 5 -6 18 -44 30 -85 35 -119 29 -116 151 -85 36 10 103
23 150 31 92 14 211 37 275 54 22 5 56 10 75 11 39 1 108 35 124 61 7 13 4 28
-17 66 -26 47 -26 51 -12 85 22 52 19 81 -12 117 -24 29 -25 34 -15 78 13 58
0 91 -45 112 -38 18 -48 49 -32 97 6 19 8 45 5 59 -6 22 -11 24 -59 23 -28 -1
-72 -8 -97 -16z"/>
<path d="M1555 950 c-10 -17 12 -37 25 -24 8 8 6 15 -4 23 -10 9 -16 9 -21 1z"/>
</g>
</svg>
